<?xml version="1.0" encoding="iso-8859-1"?>
<!-- Uploaded to: SVG Repo, www.svgrepo.com, Generator: SVG Repo Mixer Tools -->
<svg fill="#000000" version="1.1" id="Layer_1" xmlns="http://www.w3.org/2000/svg" xmlns:xlink="http://www.w3.org/1999/xlink" 
	 viewBox="0 0 512 512" xml:space="preserve">
<g>
	<g>
		<rect x="292.239" y="93.057" width="30.681" height="30.417"/>
	</g>
</g>
<g>
	<g>
		<rect x="343.198" y="93.057" width="76.793" height="30.417"/>
	</g>
</g>
<g>
	<g>
		<rect x="389.32" y="194.448" width="30.681" height="30.417"/>
	</g>
</g>
<g>
	<g>
		<rect x="292.239" y="194.448" width="76.793" height="30.417"/>
	</g>
</g>
<g>
	<g>
		<rect x="292.239" y="143.752" width="127.752" height="30.417"/>
	</g>
</g>
<g>
	<g>
		<rect x="292.239" y="245.143" width="127.752" height="30.417"/>
	</g>
</g>
<g>
	<g>
		<rect x="292.239" y="295.838" width="97.335" height="30.417"/>
	</g>
</g>
<g>
	<g>
		<path d="M471.444,50.982V30.704H271.208h-30.417h-75.172h-30.417h-21.739H83.045H40.556v20.278H0v378.185h83.045v52.129
			l41.287-16.052l41.287,16.052v-52.129h75.172h30.417H512V50.982H471.444z M83.045,398.75H30.417V81.399h10.139v307.212h42.489
			V398.75z M83.045,358.194H70.974V61.121h12.072V358.194z M113.462,436.835v-7.668v-40.556v-30.417V61.121h21.739v297.073v30.417
			v40.556v7.668l-10.869-4.226L113.462,436.835z M240.791,398.75h-75.172v-10.139h75.172V398.75z M240.791,358.194h-75.172v-31.937
			h54.139V295.84h-54.139v-20.278h54.139v-30.417h-54.139v-20.278h54.139v-30.417h-54.139v-20.278h54.139v-30.417h-54.139v-20.278
			h54.139V93.058h-54.139V61.121h75.172V358.194z M271.208,61.121h169.817v297.073H271.208V61.121z M271.208,398.75v-10.139h200.235
			V81.399h10.139V398.75H271.208z"/>
	</g>
</g>
</svg>